<svg xmlns="http://www.w3.org/2000/svg" viewBox="0 0 100 100"><g transform="translate(0.000,18.180) scale(0.8182)">
  <g transform="translate(-29.789 -35.950) scale(1.5973)">
<!-- Handle arc -->
  <path d="M28,34 Q50,20 72,34" fill="none" stroke="#888" stroke-width="4" stroke-linecap="round"/>
  <!-- Bucket body -->
  <path d="M22,36 L28,78 Q50,84 72,78 L78,36 Z" fill="#5B8CC8" stroke="#333" stroke-width="2.5" stroke-linejoin="round"/>
  <!-- Rim -->
  <ellipse cx="50" cy="36" rx="28" ry="6" fill="#4A7AB8" stroke="#333" stroke-width="2.5"/>
  <!-- Water line -->
  <path d="M28,58 Q50,54 72,58" fill="none" stroke="#A8C8E8" stroke-width="2"/>
</g>
  </g><g transform="translate(0,0) scale(0.1953) translate(360 8) scale(0.2812)"><defs><radialGradient id="pl2335" cx="40%" cy="35%" r="65%"><stop offset="0%" stop-color="#7ed957"/><stop offset="100%" stop-color="#3aa324"/></radialGradient></defs><path d="M 256.0,56.0 L 281.0,212.7 L 429.2,156.0 L 306.0,256.0 L 429.2,356.0 L 281.0,299.3 L 256.0,456.0 L 231.0,299.3 L 82.8,356.0 L 206.0,256.0 L 82.8,156.0 L 231.0,212.7 Z" fill="url(#pl2335)" stroke="#1a1a1a" stroke-width="14" stroke-linejoin="round"/></g></svg>
