<svg xmlns="http://www.w3.org/2000/svg" viewBox="0 0 100 100" data-copyright="© 2026 Sensory App House"><!--SAH-COPYRIGHT © 2026 Sensory App House. All rights reserved.--><metadata id="sah-copyright"><rdf:RDF xmlns:rdf="http://www.w3.org/1999/02/22-rdf-syntax-ns#" xmlns:dc="http://purl.org/dc/elements/1.1/" xmlns:cc="http://creativecommons.org/ns#"><cc:Work rdf:about=""><dc:rights><cc:Agent><dc:title>© 2026 Sensory App House. All rights reserved.</dc:title></cc:Agent></dc:rights><dc:creator><cc:Agent><dc:title>Sensory App House (PiCom)</dc:title></cc:Agent></dc:creator><dc:date>2026</dc:date></cc:Work></rdf:RDF></metadata>
  <g transform="translate(-12.886 -10.998) scale(1.2468)">
<!-- Door frame -->
  <rect x="18" y="18" width="35" height="62" rx="3" fill="#d0b888" stroke="#333" stroke-width="2.5"/>
  <!-- Closed door -->
  <rect x="20" y="20" width="31" height="58" rx="2" fill="#c09055" stroke="#333" stroke-width="2"/>
  <circle cx="46" cy="52" r="3" fill="#f0c020" stroke="#333" stroke-width="1.5"/>
  <!-- Brick wall blocking right side -->
  <rect x="55" y="18" width="28" height="62" rx="2" fill="#cc8060" stroke="#333" stroke-width="2.5"/>
  <!-- Brick pattern -->
  <line x1="55" y1="30" x2="83" y2="30" stroke="#a06040" stroke-width="1"/>
  <line x1="55" y1="42" x2="83" y2="42" stroke="#a06040" stroke-width="1"/>
  <line x1="55" y1="54" x2="83" y2="54" stroke="#a06040" stroke-width="1"/>
  <line x1="55" y1="66" x2="83" y2="66" stroke="#a06040" stroke-width="1"/>
  <line x1="69" y1="18" x2="69" y2="30" stroke="#a06040" stroke-width="1"/>
  <line x1="62" y1="30" x2="62" y2="42" stroke="#a06040" stroke-width="1"/>
  <line x1="76" y1="42" x2="76" y2="54" stroke="#a06040" stroke-width="1"/>
  <line x1="63" y1="54" x2="63" y2="66" stroke="#a06040" stroke-width="1"/>
  <line x1="70" y1="66" x2="70" y2="80" stroke="#a06040" stroke-width="1"/>
  <!-- X mark -->
  <line x1="58" y1="85" x2="80" y2="75" stroke="#cc2020" stroke-width="3" stroke-linecap="round"/>
  <line x1="80" y1="85" x2="58" y2="75" stroke="#cc2020" stroke-width="3" stroke-linecap="round"/>
</g>
  </svg>
