<svg viewBox="0 0 100 100" xmlns="http://www.w3.org/2000/svg" data-copyright="© 2026 Sensory App House"><g transform="translate(0.000,2.170) scale(0.9783)"><!--SAH-COPYRIGHT © 2026 Sensory App House. All rights reserved.--><metadata id="sah-copyright"><rdf:RDF xmlns:rdf="http://www.w3.org/1999/02/22-rdf-syntax-ns#" xmlns:dc="http://purl.org/dc/elements/1.1/" xmlns:cc="http://creativecommons.org/ns#"><cc:Work rdf:about=""><dc:rights><cc:Agent><dc:title>© 2026 Sensory App House. All rights reserved.</dc:title></cc:Agent></dc:rights><dc:creator><cc:Agent><dc:title>Sensory App House (PiCom)</dc:title></cc:Agent></dc:creator><dc:date>2026</dc:date></cc:Work></rdf:RDF></metadata>
  <!-- Small round clementine -->
  <circle cx="50" cy="56" r="35" fill="#e87020" stroke="#333" stroke-width="2.5"/>
  <!-- Segment lines (subtle) -->
  <path d="M50 21 Q55 56 50 91" fill="none" stroke="#c05010" stroke-width="1.5" opacity="0.5"/>
  <path d="M50 21 Q65 45 80 56" fill="none" stroke="#c05010" stroke-width="1" opacity="0.4"/>
  <path d="M50 21 Q35 45 20 56" fill="none" stroke="#c05010" stroke-width="1" opacity="0.4"/>
  <!-- Navel/top dimple -->
  <ellipse cx="50" cy="22" rx="6" ry="4" fill="#c05010" stroke="#333" stroke-width="1"/>
  <!-- Stem -->
  <path d="M50 18 Q51 10 53 7" fill="none" stroke="#5a3010" stroke-width="2.5" stroke-linecap="round"/>
  <!-- Leaf -->
  <path d="M51 13 Q62 5 65 13 Q56 17 51 13 Z" fill="#4a9020" stroke="#2a6010" stroke-width="1.5"/>
  <!-- Highlight -->
  <ellipse cx="37" cy="42" rx="8" ry="10" fill="white" opacity="0.2" transform="rotate(-20 37 42)"/>
</g><g transform="translate(0,0) scale(0.1953) translate(360 8) scale(0.2812)"><defs><radialGradient id="pl1209" cx="40%" cy="35%" r="65%"><stop offset="0%" stop-color="#7ed957"/><stop offset="100%" stop-color="#3aa324"/></radialGradient></defs><path d="M 256.0,56.0 L 281.0,212.7 L 429.2,156.0 L 306.0,256.0 L 429.2,356.0 L 281.0,299.3 L 256.0,456.0 L 231.0,299.3 L 82.8,356.0 L 206.0,256.0 L 82.8,156.0 L 231.0,212.7 Z" fill="url(#pl1209)" stroke="#1a1a1a" stroke-width="14" stroke-linejoin="round"/></g></svg>