<svg xmlns="http://www.w3.org/2000/svg" viewBox="0 0 100 100" data-copyright="© 2026 Sensory App House"><g transform="translate(0.000,9.410) scale(0.9059)"><!--SAH-COPYRIGHT © 2026 Sensory App House. All rights reserved.--><metadata id="sah-copyright"><rdf:RDF xmlns:rdf="http://www.w3.org/1999/02/22-rdf-syntax-ns#" xmlns:dc="http://purl.org/dc/elements/1.1/" xmlns:cc="http://creativecommons.org/ns#"><cc:Work rdf:about=""><dc:rights><cc:Agent><dc:title>© 2026 Sensory App House. All rights reserved.</dc:title></cc:Agent></dc:rights><dc:creator><cc:Agent><dc:title>Sensory App House (PiCom)</dc:title></cc:Agent></dc:creator><dc:date>2026</dc:date></cc:Work></rdf:RDF></metadata>
<!-- Tree trunk -->
  <rect x="58" y="20" width="12" height="65" fill="#a0724a" stroke="#5a3a1a" stroke-width="2" stroke-linejoin="round"/>
  <!-- Tree top -->
  <ellipse cx="64" cy="22" rx="14" ry="18" fill="#4a7a3a" stroke="#2a4a1a" stroke-width="2"/>
  <!-- Woodpecker body -->
  <ellipse cx="42" cy="48" rx="12" ry="8" fill="#cc2200" stroke="#661100" stroke-width="2" stroke-linejoin="round"/>
  <!-- Head -->
  <circle cx="32" cy="44" r="7" fill="#cc2200" stroke="#661100" stroke-width="2"/>
  <!-- Red crest -->
  <polygon points="32,37 29,30 35,36" fill="#ff3300" stroke="#661100" stroke-width="1.5"/>
  <!-- Black and white face -->
  <ellipse cx="29" cy="45" rx="4" ry="3" fill="white" stroke="#661100" stroke-width="1"/>
  <!-- Eye -->
  <circle cx="29" cy="44" r="1.5" fill="#111"/>
  <!-- Beak -->
  <polygon points="24,47 20,49 24,50" fill="#cc9900" stroke="#886600" stroke-width="1.5" stroke-linejoin="round"/>
  <!-- Wing -->
  <ellipse cx="44" cy="50" rx="9" ry="5" fill="#222" stroke="#111" stroke-width="1.5"/>
  <!-- White wing stripe -->
  <line x1="38" y1="48" x2="52" y2="52" stroke="white" stroke-width="1.5"/>
  <!-- Tail -->
  <polygon points="54,52 62,58 54,58" fill="#222" stroke="#111" stroke-width="1.5" stroke-linejoin="round"/>
  <!-- Feet gripping tree -->
  <line x1="52" y1="54" x2="58" y2="52" stroke="#cc9900" stroke-width="2" stroke-linecap="round"/>
  <line x1="52" y1="57" x2="58" y2="56" stroke="#cc9900" stroke-width="2" stroke-linecap="round"/>
  <!-- Hammering marks -->
  <line x1="57" y1="48" x2="61" y2="48" stroke="#5a3a1a" stroke-width="1.5" stroke-linecap="round"/>
  <line x1="57" y1="51" x2="61" y2="51" stroke="#5a3a1a" stroke-width="1.5" stroke-linecap="round"/>
</g><g transform="translate(0,0) scale(0.1953) translate(360 8) scale(0.2812)"><defs><radialGradient id="pl80" cx="40%" cy="35%" r="65%"><stop offset="0%" stop-color="#7ed957"/><stop offset="100%" stop-color="#3aa324"/></radialGradient></defs><path d="M 256.0,56.0 L 281.0,212.7 L 429.2,156.0 L 306.0,256.0 L 429.2,356.0 L 281.0,299.3 L 256.0,456.0 L 231.0,299.3 L 82.8,356.0 L 206.0,256.0 L 82.8,156.0 L 231.0,212.7 Z" fill="url(#pl80)" stroke="#1a1a1a" stroke-width="14" stroke-linejoin="round"/></g></svg>
