<svg xmlns="http://www.w3.org/2000/svg" viewBox="0 0 100 100">
<!-- 3x3 grid of identical shapes (small squares), each with a tick -->
  <!-- Row 1 -->
  <rect x="8" y="10" width="22" height="22" rx="3" fill="#5599dd" stroke="black" stroke-width="1.5"/>
  <polyline points="12,22 17,27 26,16" fill="none" stroke="white" stroke-width="2.5" stroke-linecap="round" stroke-linejoin="round"/>
  <rect x="39" y="10" width="22" height="22" rx="3" fill="#5599dd" stroke="black" stroke-width="1.5"/>
  <polyline points="43,22 48,27 57,16" fill="none" stroke="white" stroke-width="2.5" stroke-linecap="round" stroke-linejoin="round"/>
  <rect x="70" y="10" width="22" height="22" rx="3" fill="#5599dd" stroke="black" stroke-width="1.5"/>
  <polyline points="74,22 79,27 88,16" fill="none" stroke="white" stroke-width="2.5" stroke-linecap="round" stroke-linejoin="round"/>
  <!-- Row 2 -->
  <rect x="8" y="39" width="22" height="22" rx="3" fill="#5599dd" stroke="black" stroke-width="1.5"/>
  <polyline points="12,51 17,56 26,45" fill="none" stroke="white" stroke-width="2.5" stroke-linecap="round" stroke-linejoin="round"/>
  <rect x="39" y="39" width="22" height="22" rx="3" fill="#5599dd" stroke="black" stroke-width="1.5"/>
  <polyline points="43,51 48,56 57,45" fill="none" stroke="white" stroke-width="2.5" stroke-linecap="round" stroke-linejoin="round"/>
  <rect x="70" y="39" width="22" height="22" rx="3" fill="#5599dd" stroke="black" stroke-width="1.5"/>
  <polyline points="74,51 79,56 88,45" fill="none" stroke="white" stroke-width="2.5" stroke-linecap="round" stroke-linejoin="round"/>
  <!-- Row 3 -->
  <rect x="8" y="68" width="22" height="22" rx="3" fill="#5599dd" stroke="black" stroke-width="1.5"/>
  <polyline points="12,80 17,85 26,74" fill="none" stroke="white" stroke-width="2.5" stroke-linecap="round" stroke-linejoin="round"/>
  <rect x="39" y="68" width="22" height="22" rx="3" fill="#5599dd" stroke="black" stroke-width="1.5"/>
  <polyline points="43,80 48,85 57,74" fill="none" stroke="white" stroke-width="2.5" stroke-linecap="round" stroke-linejoin="round"/>
  <rect x="70" y="68" width="22" height="22" rx="3" fill="#5599dd" stroke="black" stroke-width="1.5"/>
  <polyline points="74,80 79,85 88,74" fill="none" stroke="white" stroke-width="2.5" stroke-linecap="round" stroke-linejoin="round"/>
</svg>
