<svg xmlns="http://www.w3.org/2000/svg" viewBox="0 0 100 100" data-copyright="© 2026 Sensory App House"><g transform="translate(0.000,13.460) scale(0.8654)"><!--SAH-COPYRIGHT © 2026 Sensory App House. All rights reserved.--><metadata id="sah-copyright"><rdf:RDF xmlns:rdf="http://www.w3.org/1999/02/22-rdf-syntax-ns#" xmlns:dc="http://purl.org/dc/elements/1.1/" xmlns:cc="http://creativecommons.org/ns#"><cc:Work rdf:about=""><dc:rights><cc:Agent><dc:title>© 2026 Sensory App House. All rights reserved.</dc:title></cc:Agent></dc:rights><dc:creator><cc:Agent><dc:title>Sensory App House (PiCom)</dc:title></cc:Agent></dc:creator><dc:date>2026</dc:date></cc:Work></rdf:RDF></metadata>
<!-- Amplifier - box with dials and grille -->
  <!-- Main cabinet -->
  <rect x="8" y="20" width="84" height="62" rx="4" fill="#444" stroke="#222" stroke-width="2.5"/>
  <!-- Top panel with dials -->
  <rect x="8" y="20" width="84" height="22" rx="4" fill="#555" stroke="#222" stroke-width="1.5"/>
  <!-- Dials -->
  <circle cx="25" cy="31" r="7" fill="#333" stroke="#888" stroke-width="1.5"/>
  <line x1="25" y1="31" x2="25" y2="25" stroke="#ddd" stroke-width="1.5" stroke-linecap="round"/>
  <circle cx="45" cy="31" r="7" fill="#333" stroke="#888" stroke-width="1.5"/>
  <line x1="45" y1="31" x2="49" y2="26" stroke="#ddd" stroke-width="1.5" stroke-linecap="round"/>
  <circle cx="65" cy="31" r="7" fill="#333" stroke="#888" stroke-width="1.5"/>
  <line x1="65" y1="31" x2="61" y2="26" stroke="#ddd" stroke-width="1.5" stroke-linecap="round"/>
  <!-- Power indicator -->
  <circle cx="83" cy="27" r="3" fill="#4e4" stroke="#222" stroke-width="1"/>
  <!-- Speaker grille area -->
  <rect x="12" y="46" width="76" height="32" rx="2" fill="#333" stroke="#555" stroke-width="1.5"/>
  <!-- Grille lines -->
  <line x1="12" y1="53" x2="88" y2="53" stroke="#555" stroke-width="1"/>
  <line x1="12" y1="60" x2="88" y2="60" stroke="#555" stroke-width="1"/>
  <line x1="12" y1="67" x2="88" y2="67" stroke="#555" stroke-width="1"/>
  <line x1="12" y1="74" x2="88" y2="74" stroke="#555" stroke-width="1"/>
  <!-- Brand logo placeholder -->
  <rect x="30" y="78" width="40" height="5" rx="2" fill="#666"/>
  <!-- Feet -->
  <rect x="15" y="82" width="8" height="5" rx="1" fill="#333" stroke="#222" stroke-width="1"/>
  <rect x="77" y="82" width="8" height="5" rx="1" fill="#333" stroke="#222" stroke-width="1"/>
</g><g transform="translate(0,0) scale(0.1953) translate(360 8) scale(0.2812)"><defs><radialGradient id="pl2417" cx="40%" cy="35%" r="65%"><stop offset="0%" stop-color="#7ed957"/><stop offset="100%" stop-color="#3aa324"/></radialGradient></defs><path d="M 256.0,56.0 L 281.0,212.7 L 429.2,156.0 L 306.0,256.0 L 429.2,356.0 L 281.0,299.3 L 256.0,456.0 L 231.0,299.3 L 82.8,356.0 L 206.0,256.0 L 82.8,156.0 L 231.0,212.7 Z" fill="url(#pl2417)" stroke="#1a1a1a" stroke-width="14" stroke-linejoin="round"/></g></svg>
