<svg xmlns="http://www.w3.org/2000/svg" viewBox="0 0 100 100">
<!-- PJ top -->
  <path d="M28 10 L42 10 L50 18 L58 10 L72 10 L76 44 L24 44 Z" fill="#7a9ad0" stroke="#333" stroke-width="2.5" stroke-linejoin="round"/>
  <!-- Left sleeve -->
  <path d="M28 10 L14 30 Q10 36 14 40 L28 22" fill="#7a9ad0" stroke="#333" stroke-width="2.5" stroke-linejoin="round"/>
  <!-- Right sleeve -->
  <path d="M72 10 L86 30 Q90 36 86 40 L72 22" fill="#7a9ad0" stroke="#333" stroke-width="2.5" stroke-linejoin="round"/>
  <!-- PJ collar -->
  <path d="M42 10 L50 16 L58 10" stroke="#333" stroke-width="2" fill="none"/>
  <!-- Button placket -->
  <line x1="50" y1="18" x2="50" y2="44" stroke="#555" stroke-width="1.5"/>
  <circle cx="50" cy="26" r="1.5" fill="#555"/>
  <circle cx="50" cy="32" r="1.5" fill="#555"/>
  <circle cx="50" cy="38" r="1.5" fill="#555"/>
  <!-- Polka dot pattern hint -->
  <circle cx="34" cy="28" r="2" fill="#5a7aaa"/>
  <circle cx="66" cy="28" r="2" fill="#5a7aaa"/>
  <!-- PJ bottoms -->
  <rect x="24" y="44" width="52" height="36" rx="2" fill="#7a9ad0" stroke="#333" stroke-width="2.5" stroke-linejoin="round"/>
  <!-- Elastic waistband -->
  <rect x="24" y="44" width="52" height="6" rx="2" fill="#5a7aaa" stroke="#333" stroke-width="2"/>
  <!-- Leg seam -->
  <line x1="50" y1="50" x2="50" y2="80" stroke="#5a7aaa" stroke-width="1.5"/>
</svg>
